HIERARCHY
ROOT Pelvis
{
	OFFSET 0.000000 0.000000 0.000000
	CHANNELS 6 Xposition Yposition Zposition Xrotation Yrotation Zrotation
	JOINT LeftUpLeg_virtual
	{
		OFFSET 0.000000 0.000000 0.000000
		CHANNELS 3 Xrotation Yrotation Zrotation
		JOINT LeftUpLeg
		{
			OFFSET 18.735201 -5.666702 -4.541200
			CHANNELS 3 Xrotation Yrotation Zrotation
			JOINT LeftLeg
			{
				OFFSET -0.021200 -31.938179 0.493100
				CHANNELS 3 Xrotation Yrotation Zrotation
				JOINT LeftFoot
				{
					OFFSET 0.021200 -31.938179 -4.336299
					CHANNELS 3 Xrotation Yrotation Zrotation
					JOINT LeftToeBase
					{
						OFFSET 0.943001 -26.722000 15.023500
						CHANNELS 3 Xrotation Yrotation Zrotation
						End Site
						{
							OFFSET 0 0 0
						}
					}
				}
			}
		}
	}
	JOINT RightUpLeg_virtual
	{
		OFFSET 0.000000 0.000000 0.000000
		CHANNELS 3 Xrotation Yrotation Zrotation
		JOINT RightUpLeg
		{
			OFFSET -18.735201 -5.666702 -4.541200
			CHANNELS 3 Xrotation Yrotation Zrotation
			JOINT RightLeg
			{
				OFFSET 0.018946 -31.938133 0.493100
				CHANNELS 3 Xrotation Yrotation Zrotation
				JOINT RightFoot
				{
					OFFSET -0.018946 -31.938126 -4.336299
					CHANNELS 3 Xrotation Yrotation Zrotation
					JOINT RightToeBase
					{
						OFFSET -0.943001 -26.722004 15.023500
						CHANNELS 3 Xrotation Yrotation Zrotation
						End Site
						{
							OFFSET 0 0 0
						}
					}
				}
			}
		}
	}
	JOINT Hips_virtual
	{
		OFFSET 0.000000 0.000000 0.000000
		CHANNELS 3 Xrotation Yrotation Zrotation
		JOINT Hips
		{
			OFFSET -0.000000 -0.000000 -0.000000
			CHANNELS 3 Xrotation Yrotation Zrotation
			JOINT Spine
			{
				OFFSET 0.000000 10.199997 -0.299500
				CHANNELS 3 Xrotation Yrotation Zrotation
				JOINT Spine1
				{
					OFFSET 0.000000 11.900002 -1.516600
					CHANNELS 3 Xrotation Yrotation Zrotation
					JOINT Spine2
					{
						OFFSET 0.000000 13.600006 -2.842500
						CHANNELS 3 Xrotation Yrotation Zrotation
						JOINT Neck_virtual
						{
							OFFSET 0.000000 0.000000 0.000000
							CHANNELS 3 Xrotation Yrotation Zrotation
							JOINT Neck
							{
								OFFSET 0.000000 9.624100 -2.890100
								CHANNELS 3 Xrotation Yrotation Zrotation
								JOINT Head
								{
									OFFSET 0.000000 14.068802 -1.351900
									CHANNELS 3 Xrotation Yrotation Zrotation
									End Site
									{
										OFFSET 0 0 0
									}
								}
							}
						}
						JOINT LeftShoulder_virtual
						{
							OFFSET 0.000000 0.000000 0.000000
							CHANNELS 3 Xrotation Yrotation Zrotation
							JOINT LeftShoulder
							{
								OFFSET 15.263000 10.923401 -0.547700
								CHANNELS 3 Xrotation Yrotation Zrotation
								JOINT LeftArm
								{
									OFFSET 25.438599 -2.830597 -13.032500
									CHANNELS 3 Xrotation Yrotation Zrotation
									JOINT LeftForeArm
									{
										OFFSET 29.960503 0.000000 0.000000
										CHANNELS 3 Xrotation Yrotation Zrotation
										JOINT LeftHand
										{
											OFFSET 27.849251 0.000000 0.000000
											CHANNELS 3 Xrotation Yrotation Zrotation
											End Site
											{
												OFFSET 0 0 0
											}
										}
									}
								}
							}
						}
						JOINT RightShoulder_virtual
						{
							OFFSET 0.000000 0.000000 0.000000
							CHANNELS 3 Xrotation Yrotation Zrotation
							JOINT RightShoulder
							{
								OFFSET -15.263000 10.923401 -0.547700
								CHANNELS 3 Xrotation Yrotation Zrotation
								JOINT RightArm
								{
									OFFSET -25.438599 -2.830597 -13.032500
									CHANNELS 3 Xrotation Yrotation Zrotation
									JOINT RightForeArm
									{
										OFFSET -29.960503 0.000000 0.000000
										CHANNELS 3 Xrotation Yrotation Zrotation
										JOINT RightHand
										{
											OFFSET -27.849251 0.000000 0.000000
											CHANNELS 3 Xrotation Yrotation Zrotation
											End Site
											{
												OFFSET 0 0 0
											}
										}
									}
								}
							}
						}
					}
				}
			}
		}
	}
}
MOTION
Frames: 6
Frame Time: 0.03333333
9.819229 92.904083 -0.062279 0.000000 0.000000 0.000000 -0.932099 -17.803458 -1.157543 -10.355949 8.270823 -3.215491 21.943181 5.857603 4.234154 -10.802915 19.823140 -1.888117 0.000000 0.000000 0.000000 -1.568826 -16.451330 -1.749487 -14.414472 -8.630068 -14.306956 16.699046 3.128201 2.152745 -14.317222 -4.725877 11.028137 0.000000 0.000000 0.000000 -1.481302 -17.237458 -1.076112 -0.001256 -0.022753 -1.514626 4.839864 1.178751 -2.199863 0.623307 0.165164 -0.203608 0.000000 0.000000 0.000000 0.282607 0.768823 -0.476682 -0.246247 -0.161500 1.270407 0.000000 0.000000 0.000000 0.050470 0.907810 -0.812523 2.637777 -5.868148 -11.899022 -11.321201 -16.383353 -60.345602 0.574378 -20.782442 -0.142120 0.000000 0.000000 0.000000 0.418083 0.977190 -0.451822 2.884400 0.685528 16.050665 6.897575 0.371354 63.766824 0.998214 18.506833 -0.295002 0.000000 0.000000 0.000000 
10.256239 92.929176 0.137146 0.000000 0.000000 0.000000 -0.694638 -18.526874 -1.334451 -10.296175 8.315652 -3.644461 21.794720 5.734214 4.359883 -10.984759 20.446960 -1.495294 0.000000 0.000000 0.000000 -1.332332 -17.161981 -1.950840 -14.525350 -8.540225 -14.251981 16.458481 3.427146 2.106709 -14.699498 -4.672657 10.734020 0.000000 0.000000 0.000000 -1.243881 -17.988932 -1.279727 -0.001090 -0.024539 -1.499634 4.611140 0.734031 -2.340696 0.585763 0.052823 -0.235836 0.000000 0.000000 0.000000 0.200027 0.666079 -0.498704 -0.270625 -0.118039 1.348636 0.000000 0.000000 0.000000 -0.010627 0.802177 -0.818152 2.596818 -6.047460 -11.845713 -11.918918 -17.783434 -60.958441 0.537330 -21.081941 -0.135752 0.000000 0.000000 0.000000 0.370363 0.869044 -0.482557 2.918723 0.405174 16.394366 6.482985 0.810545 64.150339 1.028026 18.721726 -0.315117 0.000000 0.000000 0.000000 
10.637998 92.948669 0.314861 0.000000 0.000000 0.000000 -0.418433 -19.177885 -1.509491 -10.309634 8.358333 -3.995051 21.653592 5.622575 4.485311 -11.209743 21.037696 -1.128161 0.000000 0.000000 0.000000 -1.076499 -17.804044 -2.147730 -14.550331 -8.470176 -14.115238 16.081004 3.615883 2.071226 -15.100157 -4.642443 10.358691 0.000000 0.000000 0.000000 -0.970971 -18.679589 -1.480639 0.007503 -0.033482 -1.483371 4.399163 0.235979 -2.531890 0.558917 -0.066423 -0.272393 0.000000 0.000000 0.000000 0.124953 0.554784 -0.520140 -0.301572 -0.078964 1.438017 0.000000 0.000000 0.000000 -0.062012 0.686716 -0.826149 2.539867 -6.283886 -11.716826 -12.370200 -19.317182 -61.546247 0.498619 -21.650007 -0.128963 0.000000 0.000000 0.000000 0.332200 0.750920 -0.516706 2.948049 0.092846 16.792708 5.948045 1.318569 64.471959 1.056825 18.901401 -0.323823 0.000000 0.000000 0.000000 
10.968407 92.963722 0.478168 0.000000 0.000000 0.000000 -0.099604 -19.735458 -1.671788 -10.409683 8.410751 -4.256848 21.511659 5.525762 4.603209 -11.418096 21.584007 -0.811535 0.000000 0.000000 0.000000 -0.782186 -18.358749 -2.326367 -14.475546 -8.438727 -13.932773 15.512370 3.673733 2.051416 -15.574774 -4.640663 9.979474 0.000000 0.000000 0.000000 -0.649817 -19.285707 -1.658555 0.013424 -0.051082 -1.474879 4.196343 -0.314373 -2.780669 0.541113 -0.194326 -0.326156 0.000000 0.000000 0.000000 0.054532 0.432371 -0.555178 -0.336024 -0.045053 1.538974 0.000000 0.000000 0.000000 -0.110209 0.561390 -0.851608 2.471580 -6.562548 -11.506320 -12.687790 -20.940559 -62.120878 0.468648 -22.500165 -0.117778 0.000000 0.000000 0.000000 0.299685 0.619445 -0.567511 2.975469 -0.262316 17.233718 5.364286 1.855490 64.728788 1.084558 19.077576 -0.322083 0.000000 0.000000 0.000000 
11.245829 92.981842 0.639980 0.000000 0.000000 0.000000 0.266682 -20.166905 -1.813807 -10.617512 8.499661 -4.426754 21.373930 5.462350 4.708967 -11.483846 22.102535 -0.565466 0.000000 0.000000 0.000000 -0.436245 -18.821329 -2.479901 -14.338667 -8.437626 -13.752212 14.800624 3.610423 2.046752 -15.970162 -4.625939 9.685602 0.000000 0.000000 0.000000 -0.274675 -19.776543 -1.802590 0.022030 -0.072902 -1.470379 3.997790 -0.907506 -3.094836 0.526889 -0.331046 -0.402850 0.000000 0.000000 0.000000 -0.013869 0.298141 -0.611697 -0.372930 -0.019036 1.651129 0.000000 0.000000 0.000000 -0.161063 0.424717 -0.901622 2.399914 -6.873221 -11.219661 -12.877692 -22.604835 -62.692763 0.451365 -23.542095 -0.103173 0.000000 0.000000 0.000000 0.264351 0.472772 -0.642135 3.009026 -0.664138 17.706080 4.809446 2.384053 64.926993 1.114291 19.273054 -0.313409 0.000000 0.000000 0.000000 
11.475183 93.002533 0.800735 0.000000 0.000000 0.000000 0.684450 -20.490163 -1.932767 -10.929282 8.601360 -4.520416 21.259544 5.429379 4.817487 -11.423027 22.581162 -0.397535 0.000000 0.000000 0.000000 -0.025935 -19.182059 -2.602819 -14.216497 -8.436546 -13.593168 14.069714 3.450211 2.038059 -16.117662 -4.570467 9.522247 0.000000 0.000000 0.000000 0.161066 -20.144774 -1.911794 0.023053 -0.104222 -1.486229 3.801790 -1.524605 -3.477051 0.515059 -0.474583 -0.499404 0.000000 0.000000 0.000000 -0.086007 0.153480 -0.688833 -0.409429 -0.000553 1.771965 0.000000 0.000000 0.000000 -0.213325 0.278268 -0.975134 2.330612 -7.208399 -10.866427 -12.941923 -24.257548 -63.260577 0.448819 -24.655832 -0.087047 0.000000 0.000000 0.000000 0.225435 0.312007 -0.739011 3.049677 -1.096816 18.192151 4.358472 2.888278 65.071595 1.151784 19.526208 -0.305071 0.000000 0.000000 0.000000 
